<svg xmlns="http://www.w3.org/2000/svg" width="347" height="212" viewBox="0 0 347 212">
<g>
<path d="M 37.10,212.00 L 40.11,211.99 L 41.48,211.99 L 44.16,211.98 L 45.38,211.97 L 47.73,211.96 L 48.80,211.95 L 50.85,211.93 L 51.78,211.92 L 53.55,211.89 L 54.34,211.88 L 57.22,211.80 L 58.30,211.75 L 60.24,211.65 L 60.90,211.58 L 62.02,211.43 L 62.32,211.34 L 62.77,211.14 L 62.79,211.02 L 62.70,210.77 L 62.50,210.62 L 61.90,210.06 L 61.60,209.52 L 61.50,209.07 L 61.33,208.02 L 61.31,207.20 L 61.30,206.32 L 61.30,205.79 L 61.33,204.66 L 61.36,203.99 L 61.43,202.58 L 61.48,201.75 L 61.59,200.01 L 61.66,199.00 L 61.82,196.89 L 61.92,195.69 L 62.12,193.18 L 62.24,191.76 L 62.50,188.81 L 62.64,187.15 L 62.94,183.72 L 63.12,181.82 L 63.47,177.87 L 63.67,175.69 L 64.08,171.19 L 64.30,168.72 L 65.04,160.70 L 65.49,155.83 L 65.71,153.61 L 66.13,149.32 L 66.33,147.37 L 66.72,143.61 L 66.91,141.92 L 67.28,138.65 L 67.47,137.18 L 67.84,134.35 L 68.02,133.08 L 68.39,130.65 L 68.58,129.56 L 68.97,127.48 L 69.17,126.55 L 70.01,123.12 L 70.49,121.74 L 71.49,119.18 L 72.08,118.10 L 73.33,116.05 L 74.08,115.08 L 75.66,113.14 L 76.61,112.09 L 78.76,109.98 L 80.52,108.47 L 81.48,107.73 L 83.43,106.28 L 84.40,105.63 L 86.32,104.39 L 87.19,103.92 L 89.22,102.84 L 90.39,102.25 L 90.93,102.02 L 92.96,101.22 L 94.03,100.99 L 95.13,100.79 L 95.75,100.73 L 97.04,100.61 L 97.79,100.58 L 99.38,100.52 L 100.32,100.51 L 102.31,100.50 L 103.50,100.50 L 106.52,100.52 L 108.25,100.55 L 108.99,100.59 L 111.69,100.77 L 112.78,100.96 L 114.82,101.42 L 115.83,101.80 L 117.89,102.65 L 119.14,103.27 L 123.11,105.53 L 125.54,107.25 L 126.65,108.23 L 128.81,110.27 L 129.79,111.42 L 131.69,113.80 L 132.56,115.13 L 134.23,117.88 L 134.99,119.41 L 136.45,122.57 L 137.11,124.31 L 138.38,127.90 L 138.95,129.88 L 140.04,133.93 L 140.53,136.15 L 141.60,140.59 L 142.35,143.31 L 142.74,144.56 L 144.40,149.29 L 145.37,151.33 L 147.42,155.20 L 148.64,156.92 L 151.23,160.24 L 152.77,161.79 L 156.56,165.01 L 159.48,166.99 L 161.08,167.88 L 164.38,169.58 L 166.13,170.32 L 169.68,171.71 L 171.51,172.28 L 175.18,173.31 L 177.01,173.69 L 180.65,174.33 L 182.42,174.49 L 185.91,174.69 L 187.55,174.61 L 190.75,174.33 L 192.19,174.00 L 198.69,172.01 L 202.80,170.25 L 204.72,169.18 L 208.47,166.92 L 210.20,165.61 L 213.54,162.89 L 215.04,161.38 L 217.92,158.25 L 219.17,156.56 L 221.54,153.08 L 222.51,151.24 L 224.31,147.47 L 224.97,145.50 L 226.14,141.49 L 226.47,139.42 L 228.37,130.80 L 230.04,125.59 L 231.09,123.27 L 233.32,118.80 L 234.63,116.84 L 237.39,113.12 L 238.96,111.55 L 242.24,108.59 L 244.08,107.40 L 247.87,105.21 L 249.95,104.41 L 254.24,103.01 L 256.57,102.61 L 261.34,102.00 L 263.90,102.00 L 266.29,102.02 L 267.67,102.07 L 268.29,102.11 L 270.58,102.34 L 271.61,102.59 L 273.67,103.18 L 274.82,103.67 L 276.01,104.18 L 276.67,104.50 L 278.06,105.16 L 278.85,105.56 L 284.26,108.78 L 287.34,111.20 L 288.67,112.60 L 291.20,115.56 L 292.32,117.29 L 294.47,120.96 L 295.45,123.12 L 296.85,126.88 L 297.24,128.36 L 297.42,129.23 L 297.78,131.08 L 297.95,132.20 L 298.30,134.57 L 298.48,136.00 L 298.85,139.03 L 299.05,140.84 L 299.45,144.68 L 299.68,146.95 L 299.91,149.29 L 300.03,150.55 L 300.28,153.15 L 300.41,154.55 L 301.33,164.38 L 301.89,170.29 L 302.14,172.95 L 302.62,178.07 L 302.83,180.36 L 303.23,184.74 L 303.41,186.68 L 303.74,190.40 L 303.88,192.02 L 304.14,195.12 L 304.25,196.46 L 304.45,199.00 L 304.53,200.08 L 304.67,202.13 L 304.71,202.98 L 304.79,204.58 L 304.81,205.24 L 304.84,206.46 L 304.83,206.95 L 304.80,207.85 L 304.77,208.20 L 304.69,208.84 L 304.64,209.08 L 304.37,209.85 L 304.18,210.07 L 303.76,210.44 L 303.49,210.63 L 303.13,211.03 L 303.15,211.25 L 303.33,211.34 L 303.80,211.51 L 304.24,211.58 L 305.26,211.71 L 306.00,211.76 L 307.65,211.84 L 308.74,211.88 L 311.12,211.93 L 312.62,211.95 L 315.82,211.98 L 317.76,211.99 L 321.88,212.00 L 131.00,212.00 L 183.75,211.97 L 190.09,211.96 L 194.11,211.95 L 196.02,211.95 L 199.76,211.93 L 201.53,211.92 L 204.99,211.91 L 206.62,211.89 L 209.81,211.87 L 211.30,211.86 L 214.20,211.83 L 215.55,211.81 L 218.18,211.78 L 219.39,211.76 L 221.73,211.72 L 222.80,211.70 L 224.87,211.66 L 225.79,211.63 L 227.57,211.58 L 228.36,211.56 L 229.86,211.51 L 230.50,211.48 L 231.72,211.42 L 232.22,211.39 L 233.15,211.33 L 233.51,211.29 L 234.16,211.22 L 234.38,211.19 L 234.74,211.12 L 234.81,211.08 L 234.89,211.00 L 234.82,210.96 L 234.05,210.17 L 233.60,209.35 L 233.41,208.79 L 233.04,207.57 L 232.90,206.81 L 232.62,205.20 L 232.52,204.24 L 232.14,200.63 L 231.93,198.72 L 231.81,198.01 L 231.56,196.73 L 231.38,196.31 L 230.99,195.59 L 230.71,195.43 L 230.09,195.23 L 229.66,195.30 L 228.71,195.56 L 228.08,195.84 L 226.70,196.50 L 225.82,196.95 L 223.93,197.95 L 222.76,198.56 L 214.91,202.17 L 209.64,204.11 L 206.90,204.87 L 201.32,206.25 L 198.33,206.76 L 192.19,207.67 L 188.82,207.97 L 182.81,208.32 L 178.97,208.35 L 177.11,208.27 L 173.42,208.03 L 171.62,207.80 L 168.03,207.27 L 166.25,206.89 L 162.71,206.06 L 160.93,205.53 L 157.37,204.39 L 155.56,203.70 L 151.92,202.23 L 150.06,201.37 L 146.29,199.57 L 144.34,198.53 L 141.28,196.93 L 139.63,196.12 L 138.97,195.85 L 137.77,195.40 L 137.32,195.33 L 136.50,195.30 L 136.21,195.45 L 135.70,195.85 L 135.53,196.24 L 135.25,197.13 L 135.18,197.77 L 135.06,199.17 L 135.04,200.09 L 135.02,202.05 L 135.01,203.25 L 134.90,205.54 L 134.70,206.82 L 134.54,207.36 L 134.17,208.39 L 133.92,208.82 L 133.36,209.64 L 133.00,210.00 L 131.00,212.00 L 32.19,212.00 M 263.00,110.03 L 257.66,110.51 L 254.32,111.30 L 252.77,111.92 L 249.75,113.30 L 248.37,114.20 L 245.69,116.16 L 244.49,117.34 L 242.19,119.84 L 241.18,121.29 L 239.27,124.31 L 238.46,126.01 L 236.97,129.53 L 236.38,131.47 L 235.33,135.47 L 234.98,137.64 L 233.56,144.32 L 232.32,148.52 L 231.56,150.48 L 229.93,154.32 L 228.97,156.12 L 226.95,159.62 L 225.79,161.25 L 223.36,164.42 L 222.00,165.88 L 219.17,168.72 L 217.60,170.03 L 214.35,172.56 L 212.58,173.70 L 208.91,175.92 L 206.92,176.92 L 203.60,178.50 L 201.49,179.43 L 200.57,179.80 L 198.84,180.47 L 198.18,180.68 L 197.04,181.00 L 196.76,181.00 L 195.72,181.10 L 195.31,181.32 L 195.23,181.55 L 195.15,182.09 L 195.21,182.53 L 195.41,183.53 L 195.59,184.25 L 195.91,185.97 L 196.09,187.42 L 196.15,188.23 L 196.36,191.67 L 196.33,193.25 L 196.31,195.45 L 196.35,196.63 L 196.42,197.08 L 196.59,197.89 L 196.75,198.17 L 197.13,198.64 L 197.42,198.76 L 198.08,198.93 L 198.53,198.91 L 199.52,198.79 L 200.17,198.64 L 201.58,198.28 L 202.46,198.02 L 204.35,197.44 L 205.50,197.08 L 211.78,194.92 L 215.42,193.45 L 217.10,192.64 L 220.41,190.96 L 222.07,189.97 L 225.44,187.88 L 227.28,186.62 L 230.52,184.49 L 232.30,183.45 L 233.03,183.14 L 234.40,182.66 L 234.95,182.65 L 235.97,182.80 L 236.38,183.13 L 237.14,183.96 L 237.45,184.66 L 238.02,186.24 L 238.26,187.34 L 238.71,189.73 L 238.93,191.25 L 239.35,194.52 L 239.57,196.50 L 240.18,200.96 L 240.38,202.09 L 240.46,202.49 L 240.62,203.15 L 240.68,203.25 L 240.95,203.33 L 241.38,203.37 L 242.43,203.45 L 243.21,203.49 L 244.94,203.56 L 246.02,203.60 L 248.32,203.66 L 249.65,203.70 L 252.41,203.76 L 253.92,203.79 L 257.03,203.84 L 258.68,203.87 L 265.49,203.96 L 268.99,203.99 L 276.01,204.04 L 279.29,204.05 L 282.52,204.06 L 284.02,204.05 L 286.95,204.05 L 288.26,204.04 L 290.77,204.02 L 291.84,204.00 L 293.83,203.97 L 294.59,203.94 L 295.95,203.89 L 296.36,203.86 L 296.98,203.79 L 296.98,203.75 L 296.91,202.96 L 296.79,201.74 L 296.71,200.81 L 296.52,198.75 L 296.40,197.43 L 296.14,194.63 L 295.98,192.99 L 295.66,189.54 L 295.49,187.61 L 295.12,183.63 L 294.92,181.47 L 294.51,177.05 L 294.29,174.70 L 293.85,169.93 L 293.62,167.46 L 293.11,162.08 L 292.80,158.75 L 292.65,157.22 L 292.36,154.22 L 292.23,152.84 L 291.96,150.16 L 291.83,148.92 L 291.58,146.53 L 291.47,145.43 L 291.23,143.31 L 291.12,142.34 L 290.69,138.70 L 290.49,137.21 L 290.10,134.43 L 289.90,133.31 L 289.52,131.22 L 289.33,130.37 L 288.94,128.81 L 288.73,128.17 L 288.32,126.97 L 288.09,126.46 L 286.15,122.74 L 284.65,120.49 L 283.81,119.47 L 282.07,117.51 L 281.11,116.65 L 279.13,115.01 L 278.06,114.31 L 275.87,112.99 L 274.70,112.46 L 272.31,111.48 L 271.05,111.12 L 268.49,110.48 L 267.14,110.30 L 264.42,110.03 M 98.73,108.40 L 95.98,109.03 L 94.63,109.52 L 91.95,110.60 L 90.66,111.29 L 88.13,112.76 L 86.94,113.61 L 84.64,115.41 L 83.60,116.41 L 81.60,118.48 L 80.74,119.60 L 79.13,121.88 L 78.50,123.08 L 77.35,125.52 L 76.98,126.78 L 76.70,128.17 L 76.47,129.68 L 76.33,130.71 L 76.04,132.92 L 75.87,134.25 L 75.54,137.06 L 75.36,138.66 L 74.99,141.97 L 74.80,143.78 L 74.40,147.50 L 74.20,149.48 L 73.39,157.67 L 72.99,162.00 L 71.82,174.65 L 71.45,178.61 L 71.27,180.48 L 70.92,184.12 L 70.77,185.79 L 70.46,189.01 L 70.32,190.42 L 70.06,193.11 L 69.95,194.23 L 69.74,196.29 L 69.66,197.05 L 69.52,198.39 L 69.48,198.75 L 68.86,204.00 L 126.82,204.00 L 128.23,187.07 L 122.77,181.03 L 120.36,178.13 L 118.66,175.87 L 117.83,174.67 L 116.20,172.26 L 115.49,171.10 L 114.13,168.83 L 113.63,167.85 L 112.53,165.69 L 111.94,164.47 L 111.70,163.96 L 110.94,162.16 L 110.78,161.52 L 110.61,160.39 L 110.71,159.94 L 111.03,159.07 L 111.35,158.60 L 112.32,157.38 L 112.95,156.81 L 113.28,156.67 L 113.93,156.46 L 114.27,156.50 L 114.96,156.66 L 115.32,156.89 L 116.07,157.44 L 116.47,157.86 L 117.30,158.81 L 117.76,159.44 L 118.70,160.81 L 119.21,161.65 L 120.28,163.44 L 120.87,164.50 L 123.53,168.87 L 125.47,171.68 L 126.53,173.04 L 130.95,178.30 L 133.44,180.68 L 138.58,185.23 L 141.37,187.19 L 144.19,189.10 L 145.65,189.97 L 148.59,191.63 L 150.10,192.37 L 157.01,195.51 L 161.28,197.17 L 163.35,197.81 L 167.48,198.98 L 169.58,199.42 L 173.84,200.19 L 176.12,200.46 L 178.95,200.69 L 180.45,200.68 L 181.08,200.58 L 182.30,200.30 L 182.89,200.06 L 184.07,199.49 L 184.72,199.08 L 186.94,197.22 L 188.01,195.77 L 188.34,194.96 L 188.85,193.27 L 188.89,192.36 L 188.83,190.47 L 188.58,189.47 L 187.59,187.12 L 186.59,185.67 L 185.97,185.05 L 184.67,183.89 L 183.96,183.48 L 182.51,182.77 L 181.78,182.63 L 180.42,182.39 L 179.16,182.16 L 178.41,182.02 L 175.15,181.43 L 173.50,181.13 L 170.53,180.39 L 168.15,179.64 L 166.87,179.18 L 164.27,178.20 L 162.99,177.67 L 160.47,176.57 L 159.35,176.02 L 154.23,173.14 L 151.10,170.99 L 149.67,169.80 L 146.90,167.33 L 145.65,165.97 L 143.24,163.17 L 142.16,161.63 L 140.08,158.47 L 139.16,156.75 L 137.40,153.21 L 136.64,151.29 L 135.19,147.35 L 134.58,145.23 L 133.43,140.87 L 132.96,138.53 L 131.12,131.17 L 129.66,126.80 L 128.79,124.88 L 126.98,121.20 L 125.93,119.62 L 123.75,116.62 L 122.52,115.38 L 119.96,113.04 L 118.53,112.12 L 115.57,110.43 L 113.93,109.82 L 110.56,108.76 L 108.71,108.46 L 104.91,108.01 L 102.84,108.01 M 249.96,32.56 L 251.37,32.59 L 251.99,32.63 L 254.30,32.84 L 255.33,33.06 L 257.35,33.61 L 258.46,34.06 L 259.60,34.54 L 260.23,34.83 L 261.55,35.46 L 262.29,35.82 L 267.16,38.76 L 270.08,41.09 L 271.36,42.41 L 273.81,45.15 L 274.84,46.65 L 276.78,49.72 L 277.55,51.36 L 278.95,54.71 L 279.44,56.45 L 280.26,59.98 L 280.45,61.79 L 280.66,65.44 L 280.53,67.28 L 280.10,70.96 L 279.63,72.80 L 278.44,76.64 L 277.49,79.06 L 276.93,80.20 L 275.76,82.42 L 275.09,83.46 L 273.70,85.49 L 272.92,86.44 L 271.31,88.27 L 270.43,89.12 L 268.60,90.76 L 267.61,91.50 L 265.57,92.95 L 264.47,93.59 L 262.21,94.84 L 261.00,95.39 L 256.77,97.07 L 254.63,97.57 L 250.35,98.34 L 248.23,98.41 L 243.99,98.32 L 241.93,97.97 L 237.85,97.06 L 235.90,96.31 L 232.07,94.62 L 230.29,93.49 L 226.81,91.06 L 225.23,89.57 L 222.20,86.42 L 220.89,84.60 L 218.41,80.78 L 217.41,78.64 L 216.26,75.80 L 215.70,73.96 L 215.52,72.99 L 215.21,70.99 L 215.13,69.83 L 215.01,67.40 L 215.01,65.93 L 215.11,62.28 L 215.28,60.04 L 215.43,59.00 L 216.18,55.05 L 216.85,53.28 L 218.39,49.83 L 219.50,48.16 L 220.68,46.49 L 221.36,45.65 L 222.79,43.94 L 223.61,43.06 L 226.27,40.37 L 228.01,38.81 L 228.89,38.13 L 230.64,36.86 L 231.53,36.32 L 233.33,35.32 L 234.26,34.91 L 236.16,34.15 L 237.16,33.85 L 239.20,33.32 L 240.29,33.13 L 242.52,32.80 L 243.72,32.70 L 246.18,32.56 L 247.52,32.55 M 119.51,29.30 L 122.84,29.44 L 124.49,29.70 L 127.80,30.35 L 129.43,30.86 L 132.66,32.02 L 134.23,32.79 L 139.28,35.78 L 142.27,38.08 L 143.59,39.41 L 146.11,42.19 L 147.22,43.77 L 149.33,47.07 L 150.25,48.92 L 151.38,51.61 L 151.90,53.40 L 152.07,54.44 L 152.34,56.63 L 152.41,58.02 L 152.46,59.47 L 152.48,60.30 L 152.50,62.02 L 152.50,63.00 L 152.48,65.76 L 152.44,67.35 L 152.41,68.05 L 152.23,70.58 L 152.06,71.59 L 151.66,73.47 L 151.34,74.34 L 150.63,76.05 L 150.13,77.00 L 146.93,82.32 L 144.67,85.32 L 143.43,86.60 L 140.88,89.00 L 139.46,90.01 L 136.50,91.93 L 134.83,92.76 L 130.39,94.67 L 128.14,95.28 L 123.64,96.26 L 121.41,96.42 L 116.96,96.50 L 114.79,96.22 L 110.50,95.44 L 108.45,94.74 L 104.43,93.13 L 102.55,92.04 L 98.91,89.64 L 97.26,88.17 L 94.10,85.02 L 92.74,83.18 L 90.17,79.33 L 89.15,77.15 L 87.79,73.91 L 87.17,71.95 L 86.98,70.89 L 86.67,68.70 L 86.60,67.34 L 86.54,65.93 L 86.52,65.13 L 86.50,63.46 L 86.50,62.50 L 86.52,59.78 L 86.56,58.22 L 86.59,57.54 L 86.79,55.07 L 86.99,54.03 L 87.48,52.06 L 87.88,51.06 L 88.79,48.98 L 89.44,47.69 L 90.90,45.16 L 92.05,43.39 L 92.68,42.55 L 93.94,40.89 L 94.56,40.17 L 95.78,38.82 L 96.32,38.33 L 100.48,35.09 L 103.41,33.28 L 104.95,32.56 L 108.06,31.22 L 109.66,30.74 L 112.89,29.89 L 114.53,29.65 L 117.84,29.29 M 243.61,40.59 L 241.77,40.91 L 239.98,41.27 L 239.17,41.52 L 237.64,42.05 L 237.00,42.39 L 233.60,44.55 L 231.32,46.34 L 230.26,47.33 L 228.23,49.33 L 227.40,50.32 L 225.90,52.28 L 225.44,53.15 L 223.60,57.78 L 222.87,60.99 L 222.74,62.61 L 222.63,65.88 L 222.80,67.50 L 223.29,70.72 L 223.75,72.28 L 224.81,75.35 L 225.55,76.79 L 227.14,79.62 L 228.13,80.90 L 230.23,83.36 L 231.46,84.42 L 234.04,86.43 L 235.50,87.22 L 238.04,88.45 L 239.39,88.89 L 242.13,89.64 L 243.54,89.84 L 246.38,90.12 L 247.81,90.10 L 250.67,89.93 L 252.08,89.68 L 254.87,89.08 L 256.21,88.63 L 258.85,87.61 L 260.09,86.94 L 262.49,85.52 L 263.57,84.66 L 265.64,82.85 L 266.52,81.80 L 269.82,76.84 L 271.36,73.32 L 271.80,71.49 L 272.49,67.82 L 272.53,65.97 L 272.39,62.27 L 272.02,60.46 L 271.09,56.88 L 270.33,55.18 L 268.63,51.85 L 267.50,50.33 L 265.05,47.38 L 263.56,46.10 L 260.41,43.68 L 258.57,42.71 L 256.31,41.77 L 254.59,41.27 L 253.65,41.08 L 249.73,40.51 L 247.69,40.48 M 119.50,37.56 L 115.67,37.79 L 113.24,38.19 L 112.10,38.50 L 109.85,39.21 L 108.79,39.68 L 106.71,40.70 L 105.74,41.33 L 103.84,42.67 L 102.95,43.46 L 101.22,45.12 L 100.42,46.07 L 98.85,48.04 L 98.14,49.15 L 96.74,51.44 L 96.11,52.71 L 94.82,56.12 L 94.28,58.57 L 94.15,59.85 L 94.01,62.44 L 94.08,63.76 L 94.31,66.39 L 94.57,67.70 L 95.16,70.29 L 95.59,71.54 L 96.53,73.99 L 97.13,75.14 L 98.40,77.36 L 99.15,78.35 L 100.73,80.25 L 101.62,81.05 L 103.35,82.56 L 104.37,83.41 L 104.82,83.78 L 106.52,85.06 L 107.30,85.52 L 108.86,86.34 L 109.74,86.68 L 111.61,87.31 L 112.81,87.64 L 116.82,88.49 L 118.79,88.54 L 122.72,88.40 L 124.60,88.00 L 128.30,86.98 L 130.03,86.16 L 133.40,84.35 L 134.90,83.18 L 137.80,80.68 L 139.03,79.20 L 141.32,76.10 L 142.21,74.37 L 143.78,70.77 L 144.26,68.82 L 144.99,64.83 L 144.99,62.72 L 144.61,57.76 L 143.96,54.78 L 143.41,53.41 L 142.17,50.72 L 141.30,49.44 L 139.41,46.92 L 138.20,45.67 L 133.95,41.84 L 131.17,39.97 L 129.71,39.34 L 126.71,38.26 L 125.03,37.97 L 121.53,37.56 Z" fill="rgb(17,22,30)"/>
<path d="M 0.00,106.00 L 0.00,0.00 L 173.50,0.00 L 347.00,0.00 L 347.00,106.00 L 347.00,212.00 L 324.31,212.00 L 321.88,212.00 L 317.76,211.99 L 315.82,211.98 L 312.62,211.95 L 311.12,211.93 L 308.74,211.88 L 307.65,211.84 L 306.00,211.76 L 305.26,211.71 L 304.24,211.58 L 303.80,211.51 L 303.33,211.34 L 303.15,211.25 L 303.13,211.03 L 303.49,210.63 L 303.76,210.44 L 304.18,210.07 L 304.37,209.85 L 304.64,209.08 L 304.69,208.84 L 304.77,208.20 L 304.80,207.85 L 304.83,206.95 L 304.84,206.46 L 304.81,205.24 L 304.79,204.58 L 304.71,202.98 L 304.67,202.13 L 304.53,200.08 L 304.45,199.00 L 304.25,196.46 L 304.14,195.12 L 303.88,192.02 L 303.74,190.40 L 303.41,186.68 L 303.23,184.74 L 302.83,180.36 L 302.62,178.07 L 302.14,172.95 L 301.89,170.29 L 301.33,164.38 L 300.41,154.55 L 300.28,153.15 L 300.03,150.55 L 299.91,149.29 L 299.68,146.95 L 299.45,144.68 L 299.05,140.84 L 298.85,139.03 L 298.48,136.00 L 298.30,134.57 L 297.95,132.20 L 297.78,131.08 L 297.42,129.23 L 297.24,128.36 L 296.85,126.88 L 295.45,123.12 L 294.47,120.96 L 292.32,117.29 L 291.20,115.56 L 288.67,112.60 L 287.34,111.20 L 284.26,108.78 L 278.85,105.56 L 278.06,105.16 L 276.67,104.50 L 276.01,104.18 L 274.82,103.67 L 273.67,103.18 L 271.61,102.59 L 270.58,102.34 L 268.29,102.11 L 267.67,102.07 L 266.29,102.02 L 263.90,102.00 L 261.34,102.00 L 256.57,102.61 L 254.24,103.01 L 249.95,104.41 L 247.87,105.21 L 244.08,107.40 L 242.24,108.59 L 238.96,111.55 L 237.39,113.12 L 234.63,116.84 L 233.32,118.80 L 231.09,123.27 L 230.04,125.59 L 228.37,130.80 L 226.47,139.42 L 226.14,141.49 L 224.97,145.50 L 224.31,147.47 L 222.51,151.24 L 221.54,153.08 L 219.17,156.56 L 217.92,158.25 L 215.04,161.38 L 213.54,162.89 L 210.20,165.61 L 208.47,166.92 L 204.72,169.18 L 202.80,170.25 L 198.69,172.01 L 192.19,174.00 L 190.75,174.33 L 187.55,174.61 L 185.91,174.69 L 182.42,174.49 L 180.65,174.33 L 177.01,173.69 L 175.18,173.31 L 171.51,172.28 L 169.68,171.71 L 166.13,170.32 L 164.38,169.58 L 161.08,167.88 L 159.48,166.99 L 156.56,165.01 L 152.77,161.79 L 151.23,160.24 L 148.64,156.92 L 147.42,155.20 L 145.37,151.33 L 144.40,149.29 L 142.74,144.56 L 142.35,143.31 L 141.60,140.59 L 140.53,136.15 L 140.04,133.93 L 138.95,129.88 L 138.38,127.90 L 137.11,124.31 L 136.45,122.57 L 134.99,119.41 L 134.23,117.88 L 132.56,115.13 L 131.69,113.80 L 129.79,111.42 L 128.81,110.27 L 126.65,108.23 L 125.54,107.25 L 123.11,105.53 L 119.14,103.27 L 117.89,102.65 L 115.83,101.80 L 114.82,101.42 L 112.78,100.96 L 111.69,100.77 L 108.99,100.59 L 108.25,100.55 L 106.52,100.52 L 103.50,100.50 L 102.31,100.50 L 100.32,100.51 L 99.38,100.52 L 97.79,100.58 L 97.04,100.61 L 95.75,100.73 L 95.13,100.79 L 94.03,100.99 L 92.96,101.22 L 90.93,102.02 L 90.39,102.25 L 89.22,102.84 L 87.19,103.92 L 86.32,104.39 L 84.40,105.63 L 83.43,106.28 L 81.48,107.73 L 80.52,108.47 L 78.76,109.98 L 76.61,112.09 L 75.66,113.14 L 74.08,115.08 L 73.33,116.05 L 72.08,118.10 L 71.49,119.18 L 70.49,121.74 L 70.01,123.12 L 69.17,126.55 L 68.97,127.48 L 68.58,129.56 L 68.39,130.65 L 68.02,133.08 L 67.84,134.35 L 67.47,137.18 L 67.28,138.65 L 66.91,141.92 L 66.72,143.61 L 66.33,147.37 L 66.13,149.32 L 65.71,153.61 L 65.49,155.83 L 65.04,160.70 L 64.30,168.72 L 64.08,171.19 L 63.67,175.69 L 63.47,177.87 L 63.12,181.82 L 62.94,183.72 L 62.64,187.15 L 62.50,188.81 L 62.24,191.76 L 62.12,193.18 L 61.92,195.69 L 61.82,196.89 L 61.66,199.00 L 61.59,200.01 L 61.48,201.75 L 61.43,202.58 L 61.36,203.99 L 61.33,204.66 L 61.30,205.79 L 61.30,206.32 L 61.31,207.20 L 61.33,208.02 L 61.50,209.07 L 61.60,209.52 L 61.90,210.06 L 62.50,210.62 L 62.70,210.77 L 62.79,211.02 L 62.77,211.14 L 62.32,211.34 L 62.02,211.43 L 60.90,211.58 L 60.24,211.65 L 58.30,211.75 L 57.22,211.80 L 54.34,211.88 L 53.55,211.89 L 51.78,211.92 L 50.85,211.93 L 48.80,211.95 L 47.73,211.96 L 45.38,211.97 L 44.16,211.98 L 41.48,211.99 L 40.11,211.99 L 37.10,212.00 L 32.19,212.00 L 0.00,212.00 L 0.00,106.00 M 261.00,95.39 L 262.21,94.84 L 264.47,93.59 L 265.57,92.95 L 267.61,91.50 L 268.60,90.76 L 270.43,89.12 L 271.31,88.27 L 272.92,86.44 L 273.70,85.49 L 275.09,83.46 L 275.76,82.42 L 276.93,80.20 L 277.49,79.06 L 278.44,76.64 L 279.63,72.80 L 280.10,70.96 L 280.53,67.28 L 280.66,65.44 L 280.45,61.79 L 280.26,59.98 L 279.44,56.45 L 278.95,54.71 L 277.55,51.36 L 276.78,49.72 L 274.84,46.65 L 273.81,45.15 L 271.36,42.41 L 270.08,41.09 L 267.16,38.76 L 262.29,35.82 L 261.55,35.46 L 260.23,34.83 L 259.60,34.54 L 258.46,34.06 L 257.35,33.61 L 255.33,33.06 L 254.30,32.84 L 251.99,32.63 L 251.37,32.59 L 249.96,32.56 L 247.52,32.55 L 246.18,32.56 L 243.72,32.70 L 242.52,32.80 L 240.29,33.13 L 239.20,33.32 L 237.16,33.85 L 236.16,34.15 L 234.26,34.91 L 233.33,35.32 L 231.53,36.32 L 230.64,36.86 L 228.89,38.13 L 228.01,38.81 L 226.27,40.37 L 223.61,43.06 L 222.79,43.94 L 221.36,45.65 L 220.68,46.49 L 219.50,48.16 L 218.39,49.83 L 216.85,53.28 L 216.18,55.05 L 215.43,59.00 L 215.28,60.04 L 215.11,62.28 L 215.01,65.93 L 215.01,67.40 L 215.13,69.83 L 215.21,70.99 L 215.52,72.99 L 215.70,73.96 L 216.26,75.80 L 217.41,78.64 L 218.41,80.78 L 220.89,84.60 L 222.20,86.42 L 225.23,89.57 L 226.81,91.06 L 230.29,93.49 L 232.07,94.62 L 235.90,96.31 L 237.85,97.06 L 241.93,97.97 L 243.99,98.32 L 248.23,98.41 L 250.35,98.34 L 254.63,97.57 L 256.77,97.07 M 134.83,92.76 L 136.50,91.93 L 139.46,90.01 L 140.88,89.00 L 143.43,86.60 L 144.67,85.32 L 146.93,82.32 L 150.13,77.00 L 150.63,76.05 L 151.34,74.34 L 151.66,73.47 L 152.06,71.59 L 152.23,70.58 L 152.41,68.05 L 152.44,67.35 L 152.48,65.76 L 152.50,63.00 L 152.50,62.02 L 152.48,60.30 L 152.46,59.47 L 152.41,58.02 L 152.34,56.63 L 152.07,54.44 L 151.90,53.40 L 151.38,51.61 L 150.25,48.92 L 149.33,47.07 L 147.22,43.77 L 146.11,42.19 L 143.59,39.41 L 142.27,38.08 L 139.28,35.78 L 134.23,32.79 L 132.66,32.02 L 129.43,30.86 L 127.80,30.35 L 124.49,29.70 L 122.84,29.44 L 119.51,29.30 L 117.84,29.29 L 114.53,29.65 L 112.89,29.89 L 109.66,30.74 L 108.06,31.22 L 104.95,32.56 L 103.41,33.28 L 100.48,35.09 L 96.32,38.33 L 95.78,38.82 L 94.56,40.17 L 93.94,40.89 L 92.68,42.55 L 92.05,43.39 L 90.90,45.16 L 89.44,47.69 L 88.79,48.98 L 87.88,51.06 L 87.48,52.06 L 86.99,54.03 L 86.79,55.07 L 86.59,57.54 L 86.56,58.22 L 86.52,59.78 L 86.50,62.50 L 86.50,63.46 L 86.52,65.13 L 86.54,65.93 L 86.60,67.34 L 86.67,68.70 L 86.98,70.89 L 87.17,71.95 L 87.79,73.91 L 89.15,77.15 L 90.17,79.33 L 92.74,83.18 L 94.10,85.02 L 97.26,88.17 L 98.91,89.64 L 102.55,92.04 L 104.43,93.13 L 108.45,94.74 L 110.50,95.44 L 114.79,96.22 L 116.96,96.50 L 121.41,96.42 L 123.64,96.26 L 128.14,95.28 L 130.39,94.67 M 133.00,210.00 L 133.36,209.64 L 133.92,208.82 L 134.17,208.39 L 134.54,207.36 L 134.70,206.82 L 134.90,205.54 L 135.01,203.25 L 135.02,202.05 L 135.04,200.09 L 135.06,199.17 L 135.18,197.77 L 135.25,197.13 L 135.53,196.24 L 135.70,195.85 L 136.21,195.45 L 136.50,195.30 L 137.32,195.33 L 137.77,195.40 L 138.97,195.85 L 139.63,196.12 L 141.28,196.93 L 144.34,198.53 L 146.29,199.57 L 150.06,201.37 L 151.92,202.23 L 155.56,203.70 L 157.37,204.39 L 160.93,205.53 L 162.71,206.06 L 166.25,206.89 L 168.03,207.27 L 171.62,207.80 L 173.42,208.03 L 177.11,208.27 L 178.97,208.35 L 182.81,208.32 L 188.82,207.97 L 192.19,207.67 L 198.33,206.76 L 201.32,206.25 L 206.90,204.87 L 209.64,204.11 L 214.91,202.17 L 222.76,198.56 L 223.93,197.95 L 225.82,196.95 L 226.70,196.50 L 228.08,195.84 L 228.71,195.56 L 229.66,195.30 L 230.09,195.23 L 230.71,195.43 L 230.99,195.59 L 231.38,196.31 L 231.56,196.73 L 231.81,198.01 L 231.93,198.72 L 232.14,200.63 L 232.52,204.24 L 232.62,205.20 L 232.90,206.81 L 233.04,207.57 L 233.41,208.79 L 233.60,209.35 L 234.05,210.17 L 234.82,210.96 L 234.89,211.00 L 234.81,211.08 L 234.74,211.12 L 234.38,211.19 L 234.16,211.22 L 233.51,211.29 L 233.15,211.33 L 232.22,211.39 L 231.72,211.42 L 230.50,211.48 L 229.86,211.51 L 228.36,211.56 L 227.57,211.58 L 225.79,211.63 L 224.87,211.66 L 222.80,211.70 L 221.73,211.72 L 219.39,211.76 L 218.18,211.78 L 215.55,211.81 L 214.20,211.83 L 211.30,211.86 L 209.81,211.87 L 206.62,211.89 L 204.99,211.91 L 201.53,211.92 L 199.76,211.93 L 196.02,211.95 L 194.11,211.95 L 190.09,211.96 L 183.75,211.97 L 131.00,212.00 L 133.00,210.00 M 69.48,198.75 L 69.52,198.39 L 69.66,197.05 L 69.74,196.29 L 69.95,194.23 L 70.06,193.11 L 70.32,190.42 L 70.46,189.01 L 70.77,185.79 L 70.92,184.12 L 71.27,180.48 L 71.45,178.61 L 71.82,174.65 L 72.99,162.00 L 73.39,157.67 L 74.20,149.48 L 74.40,147.50 L 74.80,143.78 L 74.99,141.97 L 75.36,138.66 L 75.54,137.06 L 75.87,134.25 L 76.04,132.92 L 76.33,130.71 L 76.47,129.68 L 76.70,128.17 L 76.98,126.78 L 77.35,125.52 L 78.50,123.08 L 79.13,121.88 L 80.74,119.60 L 81.60,118.48 L 83.60,116.41 L 84.64,115.41 L 86.94,113.61 L 88.13,112.76 L 90.66,111.29 L 91.95,110.60 L 94.63,109.52 L 95.98,109.03 L 98.73,108.40 L 102.84,108.01 L 104.91,108.01 L 108.71,108.46 L 110.56,108.76 L 113.93,109.82 L 115.57,110.43 L 118.53,112.12 L 119.96,113.04 L 122.52,115.38 L 123.75,116.62 L 125.93,119.62 L 126.98,121.20 L 128.79,124.88 L 129.66,126.80 L 131.12,131.17 L 132.96,138.53 L 133.43,140.87 L 134.58,145.23 L 135.19,147.35 L 136.64,151.29 L 137.40,153.21 L 139.16,156.75 L 140.08,158.47 L 142.16,161.63 L 143.24,163.17 L 145.65,165.97 L 146.90,167.33 L 149.67,169.80 L 151.10,170.99 L 154.23,173.14 L 159.35,176.02 L 160.47,176.57 L 162.99,177.67 L 164.27,178.20 L 166.87,179.18 L 168.15,179.64 L 170.53,180.39 L 173.50,181.13 L 175.15,181.43 L 178.41,182.02 L 179.16,182.16 L 180.42,182.39 L 181.78,182.63 L 182.51,182.77 L 183.96,183.48 L 184.67,183.89 L 185.97,185.05 L 186.59,185.67 L 187.59,187.12 L 188.58,189.47 L 188.83,190.47 L 188.89,192.36 L 188.85,193.27 L 188.34,194.96 L 188.01,195.77 L 186.94,197.22 L 184.72,199.08 L 184.07,199.49 L 182.89,200.06 L 182.30,200.30 L 181.08,200.58 L 180.45,200.68 L 178.95,200.69 L 176.12,200.46 L 173.84,200.19 L 169.58,199.42 L 167.48,198.98 L 163.35,197.81 L 161.28,197.17 L 157.01,195.51 L 150.10,192.37 L 148.59,191.63 L 145.65,189.97 L 144.19,189.10 L 141.37,187.19 L 138.58,185.23 L 133.44,180.68 L 130.95,178.30 L 126.53,173.04 L 125.47,171.68 L 123.53,168.87 L 120.87,164.50 L 120.28,163.44 L 119.21,161.65 L 118.70,160.81 L 117.76,159.44 L 117.30,158.81 L 116.47,157.86 L 116.07,157.44 L 115.32,156.89 L 114.96,156.66 L 114.27,156.50 L 113.93,156.46 L 113.28,156.67 L 112.95,156.81 L 112.32,157.38 L 111.35,158.60 L 111.03,159.07 L 110.71,159.94 L 110.61,160.39 L 110.78,161.52 L 110.94,162.16 L 111.70,163.96 L 111.94,164.47 L 112.53,165.69 L 113.63,167.85 L 114.13,168.83 L 115.49,171.10 L 116.20,172.26 L 117.83,174.67 L 118.66,175.87 L 120.36,178.13 L 122.77,181.03 L 128.23,187.07 L 127.53,195.53 L 126.82,204.00 L 97.84,204.00 L 68.86,204.00 L 69.48,198.75 M 240.68,203.25 L 240.62,203.15 L 240.46,202.49 L 240.38,202.09 L 240.18,200.96 L 239.57,196.50 L 239.35,194.52 L 238.93,191.25 L 238.71,189.73 L 238.26,187.34 L 238.02,186.24 L 237.45,184.66 L 237.14,183.96 L 236.38,183.13 L 235.97,182.80 L 234.95,182.65 L 234.40,182.66 L 233.03,183.14 L 232.30,183.45 L 230.52,184.49 L 227.28,186.62 L 225.44,187.88 L 222.07,189.97 L 220.41,190.96 L 217.10,192.64 L 215.42,193.45 L 211.78,194.92 L 205.50,197.08 L 204.35,197.44 L 202.46,198.02 L 201.58,198.28 L 200.17,198.64 L 199.52,198.79 L 198.53,198.91 L 198.08,198.93 L 197.42,198.76 L 197.13,198.64 L 196.75,198.17 L 196.59,197.89 L 196.42,197.08 L 196.35,196.63 L 196.31,195.45 L 196.33,193.25 L 196.36,191.67 L 196.15,188.23 L 196.09,187.42 L 195.91,185.97 L 195.59,184.25 L 195.41,183.53 L 195.21,182.53 L 195.15,182.09 L 195.23,181.55 L 195.31,181.32 L 195.72,181.10 L 196.76,181.00 L 197.04,181.00 L 198.18,180.68 L 198.84,180.47 L 200.57,179.80 L 201.49,179.43 L 203.60,178.50 L 206.92,176.92 L 208.91,175.92 L 212.58,173.70 L 214.35,172.56 L 217.60,170.03 L 219.17,168.72 L 222.00,165.88 L 223.36,164.42 L 225.79,161.25 L 226.95,159.62 L 228.97,156.12 L 229.93,154.32 L 231.56,150.48 L 232.32,148.52 L 233.56,144.32 L 234.98,137.64 L 235.33,135.47 L 236.38,131.47 L 236.97,129.53 L 238.46,126.01 L 239.27,124.31 L 241.18,121.29 L 242.19,119.84 L 244.49,117.34 L 245.69,116.16 L 248.37,114.20 L 249.75,113.30 L 252.77,111.92 L 254.32,111.30 L 257.66,110.51 L 263.00,110.03 L 264.42,110.03 L 267.14,110.30 L 268.49,110.48 L 271.05,111.12 L 272.31,111.48 L 274.70,112.46 L 275.87,112.99 L 278.06,114.31 L 279.13,115.01 L 281.11,116.65 L 282.07,117.51 L 283.81,119.47 L 284.65,120.49 L 286.15,122.74 L 288.09,126.46 L 288.32,126.97 L 288.73,128.17 L 288.94,128.81 L 289.33,130.37 L 289.52,131.22 L 289.90,133.31 L 290.10,134.43 L 290.49,137.21 L 290.69,138.70 L 291.12,142.34 L 291.23,143.31 L 291.47,145.43 L 291.58,146.53 L 291.83,148.92 L 291.96,150.16 L 292.23,152.84 L 292.36,154.22 L 292.65,157.22 L 292.80,158.75 L 293.11,162.08 L 293.62,167.46 L 293.85,169.93 L 294.29,174.70 L 294.51,177.05 L 294.92,181.47 L 295.12,183.63 L 295.49,187.61 L 295.66,189.54 L 295.98,192.99 L 296.14,194.63 L 296.40,197.43 L 296.52,198.75 L 296.71,200.81 L 296.79,201.74 L 296.91,202.96 L 296.98,203.75 L 296.98,203.79 L 296.36,203.86 L 295.95,203.89 L 294.59,203.94 L 293.83,203.97 L 291.84,204.00 L 290.77,204.02 L 288.26,204.04 L 286.95,204.05 L 284.02,204.05 L 282.52,204.06 L 279.29,204.05 L 276.01,204.04 L 268.99,203.99 L 265.49,203.96 L 258.68,203.87 L 257.03,203.84 L 253.92,203.79 L 252.41,203.76 L 249.65,203.70 L 248.32,203.66 L 246.02,203.60 L 244.94,203.56 L 243.21,203.49 L 242.43,203.45 L 241.38,203.37 L 240.95,203.33 M 235.50,87.22 L 234.04,86.43 L 231.46,84.42 L 230.23,83.36 L 228.13,80.90 L 227.14,79.62 L 225.55,76.79 L 224.81,75.35 L 223.75,72.28 L 223.29,70.72 L 222.80,67.50 L 222.63,65.88 L 222.74,62.61 L 222.87,60.99 L 223.60,57.78 L 225.44,53.15 L 225.90,52.28 L 227.40,50.32 L 228.23,49.33 L 230.26,47.33 L 231.32,46.34 L 233.60,44.55 L 237.00,42.39 L 237.64,42.05 L 239.17,41.52 L 239.98,41.27 L 241.77,40.91 L 243.61,40.59 L 247.69,40.48 L 249.73,40.51 L 253.65,41.08 L 254.59,41.27 L 256.31,41.77 L 258.57,42.71 L 260.41,43.68 L 263.56,46.10 L 265.05,47.38 L 267.50,50.33 L 268.63,51.85 L 270.33,55.18 L 271.09,56.88 L 272.02,60.46 L 272.39,62.27 L 272.53,65.97 L 272.49,67.82 L 271.80,71.49 L 271.36,73.32 L 269.82,76.84 L 266.52,81.80 L 265.64,82.85 L 263.57,84.66 L 262.49,85.52 L 260.09,86.94 L 258.85,87.61 L 256.21,88.63 L 254.87,89.08 L 252.08,89.68 L 250.67,89.93 L 247.81,90.10 L 246.38,90.12 L 243.54,89.84 L 242.13,89.64 L 239.39,88.89 L 238.04,88.45 M 112.81,87.64 L 111.61,87.31 L 109.74,86.68 L 108.86,86.34 L 107.30,85.52 L 106.52,85.06 L 104.82,83.78 L 104.37,83.41 L 103.35,82.56 L 101.62,81.05 L 100.73,80.25 L 99.15,78.35 L 98.40,77.36 L 97.13,75.14 L 96.53,73.99 L 95.59,71.54 L 95.16,70.29 L 94.57,67.70 L 94.31,66.39 L 94.08,63.76 L 94.01,62.44 L 94.15,59.85 L 94.28,58.57 L 94.82,56.12 L 96.11,52.71 L 96.74,51.44 L 98.14,49.15 L 98.85,48.04 L 100.42,46.07 L 101.22,45.12 L 102.95,43.46 L 103.84,42.67 L 105.74,41.33 L 106.71,40.70 L 108.79,39.68 L 109.85,39.21 L 112.10,38.50 L 113.24,38.19 L 115.67,37.79 L 119.50,37.56 L 121.53,37.56 L 125.03,37.97 L 126.71,38.26 L 129.71,39.34 L 131.17,39.97 L 133.95,41.84 L 138.20,45.67 L 139.41,46.92 L 141.30,49.44 L 142.17,50.72 L 143.41,53.41 L 143.96,54.78 L 144.61,57.76 L 144.99,62.72 L 144.99,64.83 L 144.26,68.82 L 143.78,70.77 L 142.21,74.37 L 141.32,76.10 L 139.03,79.20 L 137.80,80.68 L 134.90,83.18 L 133.40,84.35 L 130.03,86.16 L 128.30,86.98 L 124.60,88.00 L 122.72,88.40 L 118.79,88.54 L 116.82,88.49 Z" fill="rgb(253,253,253)"/>
</g>
</svg>